<mxfile host="app.diagrams.net" modified="2022-12-07T09:41:52.046Z" agent="5.0 (Macintosh; Intel Mac OS X 10_15_7) AppleWebKit/537.36 (KHTML, like Gecko) Chrome/108.0.0.0 Safari/537.36" etag="lWk0AvYf3EPFexirno1O" version="20.5.1" type="github">
  <diagram id="Ql-hnh9AjAqlOtWOHjjB" name="Page-1">
    <mxGraphModel dx="3120" dy="1116" grid="1" gridSize="10" guides="1" tooltips="1" connect="1" arrows="1" fold="1" page="1" pageScale="1" pageWidth="1400" pageHeight="850" math="0" shadow="0">
      <root>
        <mxCell id="0" />
        <mxCell id="1" parent="0" />
        <mxCell id="YY72odECOd0iylI3bLrn-1" value="PSQL" style="shape=cylinder3;whiteSpace=wrap;html=1;boundedLbl=1;backgroundOutline=1;size=15;rounded=0;fillColor=#FF0080;strokeColor=#1A1A1A;" vertex="1" parent="1">
          <mxGeometry x="1030" y="440" width="60" height="80" as="geometry" />
        </mxCell>
        <mxCell id="YY72odECOd0iylI3bLrn-2" value="Elastic Search" style="shape=cylinder3;whiteSpace=wrap;html=1;boundedLbl=1;backgroundOutline=1;size=15;rounded=0;fillColor=#FF0080;strokeColor=#1A1A1A;" vertex="1" parent="1">
          <mxGeometry x="630" y="460" width="60" height="80" as="geometry" />
        </mxCell>
        <mxCell id="YY72odECOd0iylI3bLrn-3" value="Redis&lt;br&gt;Sentinel" style="shape=cylinder3;whiteSpace=wrap;html=1;boundedLbl=1;backgroundOutline=1;size=15;rounded=0;fillColor=#FF0080;strokeColor=#1A1A1A;" vertex="1" parent="1">
          <mxGeometry x="1380" y="760" width="60" height="80" as="geometry" />
        </mxCell>
        <mxCell id="YY72odECOd0iylI3bLrn-4" value="Tile38" style="shape=cylinder3;whiteSpace=wrap;html=1;boundedLbl=1;backgroundOutline=1;size=15;rounded=0;fillColor=#FF0080;strokeColor=#1A1A1A;" vertex="1" parent="1">
          <mxGeometry x="1040" y="610" width="60" height="80" as="geometry" />
        </mxCell>
        <mxCell id="YY72odECOd0iylI3bLrn-5" value="H3" style="shape=cylinder3;whiteSpace=wrap;html=1;boundedLbl=1;backgroundOutline=1;size=15;rounded=0;fillColor=#FF0080;strokeColor=#1A1A1A;" vertex="1" parent="1">
          <mxGeometry x="550" y="185" width="60" height="80" as="geometry" />
        </mxCell>
        <mxCell id="YY72odECOd0iylI3bLrn-6" value="" style="endArrow=none;html=1;rounded=0;" edge="1" parent="1">
          <mxGeometry width="50" height="50" relative="1" as="geometry">
            <mxPoint x="1400" y="560" as="sourcePoint" />
            <mxPoint x="1400" y="240" as="targetPoint" />
            <Array as="points">
              <mxPoint x="1280" y="400" />
            </Array>
          </mxGeometry>
        </mxCell>
        <mxCell id="YY72odECOd0iylI3bLrn-7" value="" style="endArrow=none;html=1;rounded=0;" edge="1" parent="1">
          <mxGeometry width="50" height="50" relative="1" as="geometry">
            <mxPoint y="560" as="sourcePoint" />
            <mxPoint y="240" as="targetPoint" />
            <Array as="points">
              <mxPoint x="120" y="400" />
            </Array>
          </mxGeometry>
        </mxCell>
        <mxCell id="YY72odECOd0iylI3bLrn-8" value="&lt;font style=&quot;font-size: 20px;&quot;&gt;LWM2M&lt;/font&gt;" style="text;html=1;strokeColor=none;fillColor=none;align=center;verticalAlign=middle;whiteSpace=wrap;rounded=0;" vertex="1" parent="1">
          <mxGeometry y="410" width="90" height="40" as="geometry" />
        </mxCell>
        <mxCell id="YY72odECOd0iylI3bLrn-9" value="&lt;br&gt;Data" style="endArrow=classic;html=1;" edge="1" parent="1">
          <mxGeometry width="50" height="50" relative="1" as="geometry">
            <mxPoint y="400" as="sourcePoint" />
            <mxPoint x="160" y="400" as="targetPoint" />
          </mxGeometry>
        </mxCell>
        <mxCell id="YY72odECOd0iylI3bLrn-10" value="Things&lt;br&gt;Board" style="whiteSpace=wrap;html=1;aspect=fixed;fontSize=20;" vertex="1" parent="1">
          <mxGeometry x="-80" y="360" width="80" height="80" as="geometry" />
        </mxCell>
        <mxCell id="YY72odECOd0iylI3bLrn-11" value="Data" style="endArrow=classic;html=1;fontSize=20;" edge="1" parent="1">
          <mxGeometry width="50" height="50" relative="1" as="geometry">
            <mxPoint x="1240" y="400" as="sourcePoint" />
            <mxPoint x="1400" y="400" as="targetPoint" />
          </mxGeometry>
        </mxCell>
        <mxCell id="YY72odECOd0iylI3bLrn-12" value="User" style="whiteSpace=wrap;html=1;aspect=fixed;fontSize=18;" vertex="1" parent="1">
          <mxGeometry x="1400" y="360" width="80" height="80" as="geometry" />
        </mxCell>
        <mxCell id="YY72odECOd0iylI3bLrn-37" style="edgeStyle=orthogonalEdgeStyle;orthogonalLoop=1;jettySize=auto;html=1;exitX=0.25;exitY=1;exitDx=0;exitDy=0;labelBorderColor=none;fontSize=10;startArrow=none;startFill=0;entryX=0.5;entryY=0;entryDx=0;entryDy=0;" edge="1" parent="1" source="YY72odECOd0iylI3bLrn-13" target="YY72odECOd0iylI3bLrn-38">
          <mxGeometry relative="1" as="geometry">
            <mxPoint x="490.00000000000045" y="530" as="targetPoint" />
          </mxGeometry>
        </mxCell>
        <mxCell id="YY72odECOd0iylI3bLrn-65" style="edgeStyle=orthogonalEdgeStyle;orthogonalLoop=1;jettySize=auto;html=1;labelBorderColor=none;fontSize=10;startArrow=none;startFill=0;entryX=0.5;entryY=0;entryDx=0;entryDy=0;" edge="1" parent="1" source="YY72odECOd0iylI3bLrn-13" target="YY72odECOd0iylI3bLrn-66">
          <mxGeometry relative="1" as="geometry">
            <mxPoint x="800" y="510" as="targetPoint" />
            <Array as="points">
              <mxPoint x="810" y="460" />
              <mxPoint x="810" y="460" />
            </Array>
          </mxGeometry>
        </mxCell>
        <mxCell id="YY72odECOd0iylI3bLrn-70" style="edgeStyle=orthogonalEdgeStyle;orthogonalLoop=1;jettySize=auto;html=1;entryX=0.5;entryY=0;entryDx=0;entryDy=0;labelBorderColor=none;fontSize=10;startArrow=none;startFill=0;" edge="1" parent="1" source="YY72odECOd0iylI3bLrn-13" target="YY72odECOd0iylI3bLrn-69">
          <mxGeometry relative="1" as="geometry">
            <Array as="points">
              <mxPoint x="960" y="500" />
              <mxPoint x="960" y="500" />
            </Array>
          </mxGeometry>
        </mxCell>
        <mxCell id="YY72odECOd0iylI3bLrn-81" style="edgeStyle=orthogonalEdgeStyle;orthogonalLoop=1;jettySize=auto;html=1;entryX=0.5;entryY=1;entryDx=0;entryDy=0;labelBorderColor=none;fontSize=10;startArrow=none;startFill=0;" edge="1" parent="1" target="YY72odECOd0iylI3bLrn-78">
          <mxGeometry relative="1" as="geometry">
            <mxPoint x="920" y="370" as="sourcePoint" />
            <Array as="points">
              <mxPoint x="920" y="370" />
            </Array>
          </mxGeometry>
        </mxCell>
        <mxCell id="YY72odECOd0iylI3bLrn-13" value="Kafka" style="rounded=0;whiteSpace=wrap;html=1;strokeColor=#1A1A1A;fontSize=18;fillColor=#FFFF99;" vertex="1" parent="1">
          <mxGeometry x="280" y="370" width="840" height="60" as="geometry" />
        </mxCell>
        <mxCell id="YY72odECOd0iylI3bLrn-80" value="Action" style="edgeStyle=orthogonalEdgeStyle;orthogonalLoop=1;jettySize=auto;html=1;entryX=1;entryY=0;entryDx=0;entryDy=0;labelBorderColor=none;fontSize=10;startArrow=none;startFill=0;" edge="1" parent="1" source="YY72odECOd0iylI3bLrn-14" target="YY72odECOd0iylI3bLrn-75">
          <mxGeometry relative="1" as="geometry">
            <Array as="points">
              <mxPoint x="1180" y="230" />
              <mxPoint x="780" y="230" />
            </Array>
          </mxGeometry>
        </mxCell>
        <mxCell id="YY72odECOd0iylI3bLrn-14" value="" style="whiteSpace=wrap;html=1;aspect=fixed;strokeColor=#82b366;fontSize=18;fillColor=#d5e8d4;dashed=1;" vertex="1" parent="1">
          <mxGeometry x="1120" y="340" width="120" height="120" as="geometry" />
        </mxCell>
        <mxCell id="YY72odECOd0iylI3bLrn-15" value="Inner Gateway" style="whiteSpace=wrap;html=1;aspect=fixed;strokeColor=#b85450;fontSize=18;fillColor=#f8cecc;dashed=1;" vertex="1" parent="1">
          <mxGeometry x="160" y="340" width="120" height="120" as="geometry" />
        </mxCell>
        <mxCell id="YY72odECOd0iylI3bLrn-20" style="edgeStyle=orthogonalEdgeStyle;orthogonalLoop=1;jettySize=auto;html=1;entryX=1;entryY=0;entryDx=0;entryDy=52.5;entryPerimeter=0;fontSize=10;" edge="1" parent="1" source="YY72odECOd0iylI3bLrn-16" target="YY72odECOd0iylI3bLrn-1">
          <mxGeometry relative="1" as="geometry" />
        </mxCell>
        <mxCell id="YY72odECOd0iylI3bLrn-16" value="&lt;font style=&quot;font-size: 10px;&quot;&gt;Auth&lt;/font&gt;" style="rounded=0;whiteSpace=wrap;html=1;strokeColor=default;fontSize=18;fillColor=#FFFFFF;" vertex="1" parent="1">
          <mxGeometry x="1130" y="350" width="40" height="30" as="geometry" />
        </mxCell>
        <mxCell id="YY72odECOd0iylI3bLrn-19" style="edgeStyle=orthogonalEdgeStyle;orthogonalLoop=1;jettySize=auto;html=1;entryX=1;entryY=0.5;entryDx=0;entryDy=0;entryPerimeter=0;fontSize=10;" edge="1" parent="1" source="YY72odECOd0iylI3bLrn-17" target="YY72odECOd0iylI3bLrn-1">
          <mxGeometry relative="1" as="geometry" />
        </mxCell>
        <mxCell id="YY72odECOd0iylI3bLrn-17" value="&lt;font style=&quot;font-size: 10px;&quot;&gt;Account&lt;/font&gt;" style="rounded=0;whiteSpace=wrap;html=1;strokeColor=default;fontSize=18;fillColor=#FFFFFF;" vertex="1" parent="1">
          <mxGeometry x="1130" y="420" width="40" height="30" as="geometry" />
        </mxCell>
        <mxCell id="YY72odECOd0iylI3bLrn-18" value="&lt;font style=&quot;font-size: 13px;&quot;&gt;HA/Nginx&lt;/font&gt;" style="rounded=0;whiteSpace=wrap;html=1;strokeColor=default;fontSize=18;fillColor=#FFFFFF;" vertex="1" parent="1">
          <mxGeometry x="1170" y="375" width="60" height="50" as="geometry" />
        </mxCell>
        <mxCell id="YY72odECOd0iylI3bLrn-21" value="Normalizer" style="whiteSpace=wrap;html=1;aspect=fixed;strokeColor=#b85450;fontSize=18;fillColor=#f8cecc;dashed=1;rounded=0;glass=0;sketch=0;shadow=0;imageAspect=1;align=left;verticalAlign=top;" vertex="1" parent="1">
          <mxGeometry x="320" y="120" width="200" height="200" as="geometry" />
        </mxCell>
        <mxCell id="YY72odECOd0iylI3bLrn-34" value="beta data" style="edgeStyle=orthogonalEdgeStyle;orthogonalLoop=1;jettySize=auto;html=1;entryX=0.333;entryY=-0.015;entryDx=0;entryDy=0;entryPerimeter=0;labelBorderColor=none;fontSize=10;startArrow=none;startFill=0;exitX=0.5;exitY=1;exitDx=0;exitDy=0;exitPerimeter=0;" edge="1" parent="1" source="YY72odECOd0iylI3bLrn-5" target="YY72odECOd0iylI3bLrn-13">
          <mxGeometry relative="1" as="geometry">
            <Array as="points">
              <mxPoint x="580" y="280" />
              <mxPoint x="560" y="280" />
            </Array>
          </mxGeometry>
        </mxCell>
        <mxCell id="YY72odECOd0iylI3bLrn-67" style="edgeStyle=orthogonalEdgeStyle;orthogonalLoop=1;jettySize=auto;html=1;entryX=0;entryY=0;entryDx=0;entryDy=52.5;entryPerimeter=0;labelBorderColor=none;fontSize=10;startArrow=none;startFill=0;" edge="1" parent="1" source="YY72odECOd0iylI3bLrn-22" target="YY72odECOd0iylI3bLrn-5">
          <mxGeometry relative="1" as="geometry" />
        </mxCell>
        <mxCell id="YY72odECOd0iylI3bLrn-22" value="&lt;font style=&quot;font-size: 13px;&quot;&gt;Normalizer&lt;/font&gt;" style="rounded=0;whiteSpace=wrap;html=1;strokeColor=default;fontSize=18;fillColor=#FFFFFF;" vertex="1" parent="1">
          <mxGeometry x="430" y="250" width="80" height="60" as="geometry" />
        </mxCell>
        <mxCell id="YY72odECOd0iylI3bLrn-24" value="alpha&amp;nbsp;&lt;br&gt;data" style="edgeStyle=orthogonalEdgeStyle;orthogonalLoop=1;jettySize=auto;html=1;entryX=0.165;entryY=-0.015;entryDx=0;entryDy=0;entryPerimeter=0;fontSize=10;" edge="1" parent="1" source="YY72odECOd0iylI3bLrn-23" target="YY72odECOd0iylI3bLrn-13">
          <mxGeometry relative="1" as="geometry">
            <Array as="points">
              <mxPoint x="419" y="310" />
              <mxPoint x="419" y="310" />
            </Array>
          </mxGeometry>
        </mxCell>
        <mxCell id="YY72odECOd0iylI3bLrn-33" value="WS(Live) / Http" style="edgeStyle=orthogonalEdgeStyle;orthogonalLoop=1;jettySize=auto;html=1;labelBorderColor=none;fontSize=10;startArrow=none;startFill=0;" edge="1" parent="1" source="YY72odECOd0iylI3bLrn-23">
          <mxGeometry relative="1" as="geometry">
            <mxPoint x="1340" y="320" as="targetPoint" />
            <Array as="points">
              <mxPoint x="400" y="170" />
              <mxPoint x="1340" y="170" />
            </Array>
          </mxGeometry>
        </mxCell>
        <mxCell id="YY72odECOd0iylI3bLrn-23" value="&lt;font style=&quot;font-size: 13px;&quot;&gt;Loc&lt;br&gt;Handler&lt;br&gt;&lt;/font&gt;" style="rounded=0;whiteSpace=wrap;html=1;strokeColor=default;fontSize=18;fillColor=#FFFFFF;" vertex="1" parent="1">
          <mxGeometry x="370" y="200" width="60" height="50" as="geometry" />
        </mxCell>
        <mxCell id="YY72odECOd0iylI3bLrn-25" style="edgeStyle=orthogonalEdgeStyle;orthogonalLoop=1;jettySize=auto;html=1;entryX=0.5;entryY=1;entryDx=0;entryDy=0;fontSize=10;labelBorderColor=none;" edge="1" parent="1" target="YY72odECOd0iylI3bLrn-23">
          <mxGeometry relative="1" as="geometry">
            <mxPoint x="400" y="370" as="sourcePoint" />
            <Array as="points">
              <mxPoint x="400" y="370" />
            </Array>
          </mxGeometry>
        </mxCell>
        <mxCell id="YY72odECOd0iylI3bLrn-35" value="alpha&lt;br&gt;data" style="edgeStyle=orthogonalEdgeStyle;orthogonalLoop=1;jettySize=auto;html=1;entryX=0.5;entryY=1;entryDx=0;entryDy=0;labelBorderColor=none;fontSize=10;startArrow=none;startFill=0;exitX=0.225;exitY=-0.024;exitDx=0;exitDy=0;exitPerimeter=0;" edge="1" parent="1" source="YY72odECOd0iylI3bLrn-13" target="YY72odECOd0iylI3bLrn-22">
          <mxGeometry relative="1" as="geometry" />
        </mxCell>
        <mxCell id="YY72odECOd0iylI3bLrn-39" style="edgeStyle=orthogonalEdgeStyle;orthogonalLoop=1;jettySize=auto;html=1;entryX=0;entryY=0.5;entryDx=0;entryDy=0;entryPerimeter=0;labelBorderColor=none;fontSize=10;startArrow=none;startFill=0;" edge="1" parent="1" source="YY72odECOd0iylI3bLrn-38" target="YY72odECOd0iylI3bLrn-2">
          <mxGeometry relative="1" as="geometry" />
        </mxCell>
        <mxCell id="YY72odECOd0iylI3bLrn-41" value="" style="edgeStyle=orthogonalEdgeStyle;orthogonalLoop=1;jettySize=auto;html=1;labelBorderColor=none;fontSize=10;startArrow=none;startFill=0;" edge="1" parent="1" source="YY72odECOd0iylI3bLrn-38" target="YY72odECOd0iylI3bLrn-40">
          <mxGeometry relative="1" as="geometry" />
        </mxCell>
        <mxCell id="YY72odECOd0iylI3bLrn-42" value="" style="edgeStyle=orthogonalEdgeStyle;orthogonalLoop=1;jettySize=auto;html=1;labelBorderColor=none;fontSize=10;startArrow=none;startFill=0;" edge="1" parent="1" source="YY72odECOd0iylI3bLrn-38" target="YY72odECOd0iylI3bLrn-40">
          <mxGeometry relative="1" as="geometry" />
        </mxCell>
        <mxCell id="YY72odECOd0iylI3bLrn-44" value="" style="edgeStyle=orthogonalEdgeStyle;orthogonalLoop=1;jettySize=auto;html=1;labelBorderColor=none;fontSize=10;startArrow=none;startFill=0;" edge="1" parent="1" source="YY72odECOd0iylI3bLrn-38" target="YY72odECOd0iylI3bLrn-43">
          <mxGeometry relative="1" as="geometry" />
        </mxCell>
        <mxCell id="YY72odECOd0iylI3bLrn-46" value="" style="edgeStyle=orthogonalEdgeStyle;orthogonalLoop=1;jettySize=auto;html=1;labelBorderColor=none;fontSize=10;startArrow=none;startFill=0;" edge="1" parent="1" source="YY72odECOd0iylI3bLrn-38" target="YY72odECOd0iylI3bLrn-45">
          <mxGeometry relative="1" as="geometry">
            <Array as="points">
              <mxPoint x="490" y="550" />
              <mxPoint x="640" y="550" />
            </Array>
          </mxGeometry>
        </mxCell>
        <mxCell id="YY72odECOd0iylI3bLrn-48" value="" style="edgeStyle=orthogonalEdgeStyle;orthogonalLoop=1;jettySize=auto;html=1;labelBorderColor=none;fontSize=10;startArrow=none;startFill=0;" edge="1" parent="1" source="YY72odECOd0iylI3bLrn-38" target="YY72odECOd0iylI3bLrn-47">
          <mxGeometry relative="1" as="geometry">
            <Array as="points">
              <mxPoint x="490" y="550" />
              <mxPoint x="340" y="550" />
            </Array>
          </mxGeometry>
        </mxCell>
        <mxCell id="YY72odECOd0iylI3bLrn-38" value="&lt;font style=&quot;font-size: 13px;&quot;&gt;Search&lt;/font&gt;" style="rounded=0;whiteSpace=wrap;html=1;strokeColor=default;fontSize=18;fillColor=#FFFFFF;" vertex="1" parent="1">
          <mxGeometry x="450" y="470" width="80" height="60" as="geometry" />
        </mxCell>
        <mxCell id="YY72odECOd0iylI3bLrn-52" style="edgeStyle=orthogonalEdgeStyle;orthogonalLoop=1;jettySize=auto;html=1;labelBorderColor=none;fontSize=10;startArrow=none;startFill=0;" edge="1" parent="1" source="YY72odECOd0iylI3bLrn-40">
          <mxGeometry relative="1" as="geometry">
            <mxPoint x="1330" y="460" as="targetPoint" />
            <Array as="points">
              <mxPoint x="440" y="720" />
              <mxPoint x="1330" y="720" />
            </Array>
          </mxGeometry>
        </mxCell>
        <mxCell id="YY72odECOd0iylI3bLrn-61" style="edgeStyle=orthogonalEdgeStyle;orthogonalLoop=1;jettySize=auto;html=1;entryX=0;entryY=0.5;entryDx=0;entryDy=0;labelBorderColor=none;fontSize=10;startArrow=none;startFill=0;" edge="1" parent="1" source="YY72odECOd0iylI3bLrn-40" target="YY72odECOd0iylI3bLrn-57">
          <mxGeometry relative="1" as="geometry">
            <Array as="points">
              <mxPoint x="440" y="720" />
              <mxPoint x="1330" y="720" />
              <mxPoint x="1330" y="710" />
            </Array>
          </mxGeometry>
        </mxCell>
        <mxCell id="YY72odECOd0iylI3bLrn-40" value="&lt;font style=&quot;font-size: 13px;&quot;&gt;Diagnostic&lt;/font&gt;" style="rounded=0;whiteSpace=wrap;html=1;strokeColor=default;fontSize=18;fillColor=#FFFFFF;" vertex="1" parent="1">
          <mxGeometry x="400" y="620" width="80" height="60" as="geometry" />
        </mxCell>
        <mxCell id="YY72odECOd0iylI3bLrn-54" style="edgeStyle=orthogonalEdgeStyle;orthogonalLoop=1;jettySize=auto;html=1;labelBorderColor=none;fontSize=10;startArrow=none;startFill=0;" edge="1" parent="1" source="YY72odECOd0iylI3bLrn-43">
          <mxGeometry relative="1" as="geometry">
            <mxPoint x="1350" y="490" as="targetPoint" />
            <Array as="points">
              <mxPoint x="540" y="740" />
              <mxPoint x="1350" y="740" />
            </Array>
          </mxGeometry>
        </mxCell>
        <mxCell id="YY72odECOd0iylI3bLrn-62" style="edgeStyle=orthogonalEdgeStyle;orthogonalLoop=1;jettySize=auto;html=1;entryX=0;entryY=0.5;entryDx=0;entryDy=0;labelBorderColor=none;fontSize=10;startArrow=none;startFill=0;" edge="1" parent="1" source="YY72odECOd0iylI3bLrn-43" target="YY72odECOd0iylI3bLrn-57">
          <mxGeometry relative="1" as="geometry">
            <Array as="points">
              <mxPoint x="540" y="740" />
              <mxPoint x="1350" y="740" />
              <mxPoint x="1350" y="710" />
            </Array>
          </mxGeometry>
        </mxCell>
        <mxCell id="YY72odECOd0iylI3bLrn-43" value="&lt;font style=&quot;font-size: 13px;&quot;&gt;Maintain&lt;/font&gt;" style="rounded=0;whiteSpace=wrap;html=1;strokeColor=default;fontSize=18;fillColor=#FFFFFF;" vertex="1" parent="1">
          <mxGeometry x="500" y="620" width="80" height="60" as="geometry" />
        </mxCell>
        <mxCell id="YY72odECOd0iylI3bLrn-56" style="edgeStyle=orthogonalEdgeStyle;orthogonalLoop=1;jettySize=auto;html=1;labelBorderColor=none;fontSize=10;startArrow=none;startFill=0;" edge="1" parent="1" source="YY72odECOd0iylI3bLrn-45">
          <mxGeometry relative="1" as="geometry">
            <mxPoint x="1370" y="520" as="targetPoint" />
            <Array as="points">
              <mxPoint x="640" y="760" />
              <mxPoint x="1370" y="760" />
            </Array>
          </mxGeometry>
        </mxCell>
        <mxCell id="YY72odECOd0iylI3bLrn-63" style="edgeStyle=orthogonalEdgeStyle;orthogonalLoop=1;jettySize=auto;html=1;entryX=0;entryY=0.5;entryDx=0;entryDy=0;labelBorderColor=none;fontSize=10;startArrow=none;startFill=0;" edge="1" parent="1" source="YY72odECOd0iylI3bLrn-45" target="YY72odECOd0iylI3bLrn-57">
          <mxGeometry relative="1" as="geometry">
            <Array as="points">
              <mxPoint x="640" y="760" />
              <mxPoint x="1370" y="760" />
              <mxPoint x="1370" y="710" />
            </Array>
          </mxGeometry>
        </mxCell>
        <mxCell id="YY72odECOd0iylI3bLrn-45" value="&lt;font style=&quot;font-size: 13px;&quot;&gt;Road&lt;/font&gt;" style="rounded=0;whiteSpace=wrap;html=1;strokeColor=default;fontSize=18;fillColor=#FFFFFF;" vertex="1" parent="1">
          <mxGeometry x="600" y="620" width="80" height="60" as="geometry" />
        </mxCell>
        <mxCell id="YY72odECOd0iylI3bLrn-50" style="edgeStyle=orthogonalEdgeStyle;orthogonalLoop=1;jettySize=auto;html=1;labelBorderColor=none;fontSize=10;startArrow=none;startFill=0;" edge="1" parent="1" source="YY72odECOd0iylI3bLrn-47">
          <mxGeometry relative="1" as="geometry">
            <mxPoint x="1310" y="440" as="targetPoint" />
            <Array as="points">
              <mxPoint x="340" y="700" />
              <mxPoint x="1310" y="700" />
            </Array>
          </mxGeometry>
        </mxCell>
        <mxCell id="YY72odECOd0iylI3bLrn-60" style="edgeStyle=orthogonalEdgeStyle;orthogonalLoop=1;jettySize=auto;html=1;entryX=0;entryY=0.5;entryDx=0;entryDy=0;labelBorderColor=none;fontSize=10;startArrow=none;startFill=0;" edge="1" parent="1" source="YY72odECOd0iylI3bLrn-47" target="YY72odECOd0iylI3bLrn-57">
          <mxGeometry relative="1" as="geometry">
            <Array as="points">
              <mxPoint x="340" y="700" />
              <mxPoint x="1310" y="700" />
              <mxPoint x="1310" y="710" />
            </Array>
          </mxGeometry>
        </mxCell>
        <mxCell id="YY72odECOd0iylI3bLrn-47" value="&lt;font style=&quot;font-size: 13px;&quot;&gt;Safety&lt;/font&gt;" style="rounded=0;whiteSpace=wrap;html=1;strokeColor=default;fontSize=18;fillColor=#FFFFFF;" vertex="1" parent="1">
          <mxGeometry x="300" y="620" width="80" height="60" as="geometry" />
        </mxCell>
        <mxCell id="YY72odECOd0iylI3bLrn-73" style="edgeStyle=orthogonalEdgeStyle;orthogonalLoop=1;jettySize=auto;html=1;entryX=0.5;entryY=1;entryDx=0;entryDy=0;entryPerimeter=0;labelBorderColor=none;fontSize=10;startArrow=none;startFill=0;" edge="1" parent="1" source="YY72odECOd0iylI3bLrn-57" target="YY72odECOd0iylI3bLrn-1">
          <mxGeometry relative="1" as="geometry">
            <Array as="points">
              <mxPoint x="1490" y="570" />
              <mxPoint x="1060" y="570" />
            </Array>
          </mxGeometry>
        </mxCell>
        <mxCell id="YY72odECOd0iylI3bLrn-74" style="edgeStyle=orthogonalEdgeStyle;orthogonalLoop=1;jettySize=auto;html=1;entryX=1;entryY=0;entryDx=0;entryDy=52.5;entryPerimeter=0;labelBorderColor=none;fontSize=10;startArrow=none;startFill=0;" edge="1" parent="1" source="YY72odECOd0iylI3bLrn-57" target="YY72odECOd0iylI3bLrn-3">
          <mxGeometry relative="1" as="geometry">
            <Array as="points">
              <mxPoint x="1490" y="813" />
            </Array>
          </mxGeometry>
        </mxCell>
        <mxCell id="YY72odECOd0iylI3bLrn-57" value="Notification" style="whiteSpace=wrap;html=1;aspect=fixed;rounded=0;shadow=0;glass=0;sketch=0;strokeColor=#6c8ebf;fontSize=10;fillColor=#dae8fc;" vertex="1" parent="1">
          <mxGeometry x="1450" y="670" width="80" height="80" as="geometry" />
        </mxCell>
        <mxCell id="YY72odECOd0iylI3bLrn-68" style="edgeStyle=orthogonalEdgeStyle;orthogonalLoop=1;jettySize=auto;html=1;entryX=0;entryY=0;entryDx=0;entryDy=52.5;entryPerimeter=0;labelBorderColor=none;fontSize=10;startArrow=none;startFill=0;" edge="1" parent="1" source="YY72odECOd0iylI3bLrn-66" target="YY72odECOd0iylI3bLrn-1">
          <mxGeometry relative="1" as="geometry" />
        </mxCell>
        <mxCell id="YY72odECOd0iylI3bLrn-66" value="&lt;font style=&quot;font-size: 13px;&quot;&gt;Ganje&lt;/font&gt;" style="rounded=0;whiteSpace=wrap;html=1;strokeColor=default;fontSize=18;fillColor=#FFFFFF;" vertex="1" parent="1">
          <mxGeometry x="770" y="510" width="80" height="60" as="geometry" />
        </mxCell>
        <mxCell id="YY72odECOd0iylI3bLrn-71" style="edgeStyle=orthogonalEdgeStyle;orthogonalLoop=1;jettySize=auto;html=1;entryX=0;entryY=0.5;entryDx=0;entryDy=0;entryPerimeter=0;labelBorderColor=none;fontSize=10;startArrow=none;startFill=0;" edge="1" parent="1" source="YY72odECOd0iylI3bLrn-69" target="YY72odECOd0iylI3bLrn-4">
          <mxGeometry relative="1" as="geometry" />
        </mxCell>
        <mxCell id="YY72odECOd0iylI3bLrn-72" style="edgeStyle=orthogonalEdgeStyle;orthogonalLoop=1;jettySize=auto;html=1;entryX=0.5;entryY=0;entryDx=0;entryDy=0;labelBorderColor=none;fontSize=10;startArrow=none;startFill=0;" edge="1" parent="1" source="YY72odECOd0iylI3bLrn-69" target="YY72odECOd0iylI3bLrn-57">
          <mxGeometry relative="1" as="geometry" />
        </mxCell>
        <mxCell id="YY72odECOd0iylI3bLrn-69" value="&lt;font style=&quot;font-size: 13px;&quot;&gt;Ganje&lt;/font&gt;" style="rounded=0;whiteSpace=wrap;html=1;strokeColor=default;fontSize=18;fillColor=#FFFFFF;" vertex="1" parent="1">
          <mxGeometry x="920" y="560" width="80" height="60" as="geometry" />
        </mxCell>
        <mxCell id="YY72odECOd0iylI3bLrn-76" style="edgeStyle=orthogonalEdgeStyle;orthogonalLoop=1;jettySize=auto;html=1;entryX=0.5;entryY=0;entryDx=0;entryDy=0;labelBorderColor=none;fontSize=10;startArrow=none;startFill=0;" edge="1" parent="1" source="YY72odECOd0iylI3bLrn-75" target="YY72odECOd0iylI3bLrn-15">
          <mxGeometry relative="1" as="geometry">
            <Array as="points">
              <mxPoint x="740" y="80" />
              <mxPoint x="220" y="80" />
            </Array>
          </mxGeometry>
        </mxCell>
        <mxCell id="YY72odECOd0iylI3bLrn-77" style="edgeStyle=orthogonalEdgeStyle;orthogonalLoop=1;jettySize=auto;html=1;entryX=0;entryY=0.5;entryDx=0;entryDy=0;entryPerimeter=0;labelBorderColor=none;fontSize=10;startArrow=none;startFill=0;" edge="1" parent="1" source="YY72odECOd0iylI3bLrn-75" target="YY72odECOd0iylI3bLrn-1">
          <mxGeometry relative="1" as="geometry">
            <Array as="points">
              <mxPoint x="740" y="330" />
              <mxPoint x="905" y="330" />
              <mxPoint x="905" y="480" />
            </Array>
          </mxGeometry>
        </mxCell>
        <mxCell id="YY72odECOd0iylI3bLrn-75" value="&lt;font style=&quot;font-size: 13px;&quot;&gt;Ruler&lt;/font&gt;" style="rounded=0;whiteSpace=wrap;html=1;strokeColor=default;fontSize=18;fillColor=#FFFFFF;" vertex="1" parent="1">
          <mxGeometry x="700" y="250" width="80" height="60" as="geometry" />
        </mxCell>
        <mxCell id="YY72odECOd0iylI3bLrn-79" value="Action" style="edgeStyle=orthogonalEdgeStyle;orthogonalLoop=1;jettySize=auto;html=1;entryX=1;entryY=0.5;entryDx=0;entryDy=0;labelBorderColor=none;fontSize=10;startArrow=none;startFill=0;exitX=0;exitY=0.5;exitDx=0;exitDy=0;" edge="1" parent="1" source="YY72odECOd0iylI3bLrn-78" target="YY72odECOd0iylI3bLrn-75">
          <mxGeometry relative="1" as="geometry">
            <Array as="points">
              <mxPoint x="850" y="280" />
              <mxPoint x="850" y="280" />
            </Array>
          </mxGeometry>
        </mxCell>
        <mxCell id="YY72odECOd0iylI3bLrn-78" value="&lt;font style=&quot;font-size: 13px;&quot;&gt;Predict&lt;/font&gt;" style="rounded=0;whiteSpace=wrap;html=1;strokeColor=default;fontSize=18;fillColor=#FFFFFF;" vertex="1" parent="1">
          <mxGeometry x="880" y="250" width="80" height="60" as="geometry" />
        </mxCell>
      </root>
    </mxGraphModel>
  </diagram>
</mxfile>
